<svg width="510" height="250" viewBox="0 0 510 250" fill="none" xmlns="http://www.w3.org/2000/svg">
<circle cx="254.598" cy="126.955" r="60.4153" stroke="#E5E7EB"/>
<circle opacity="0.7" cx="254.598" cy="126.957" r="73.5662" stroke="#E5E7EB"/>
<circle opacity="0.5" cx="254.598" cy="126.954" r="87.7817" stroke="#E5E7EB"/>
<circle cx="254.598" cy="126.962" r="50.1553" fill="#E5E7EB"/>
<path d="M298.369 120.802L299.136 120.16L299.127 120.15L299.118 120.139L298.369 120.802ZM340.803 132.655L340.426 131.729L340.803 132.655ZM352.359 83.9017L352.789 82.999L352.359 83.9017ZM338.34 107.754L338.546 106.776L338.34 107.754ZM387.218 80.4535L388.112 80.9007L387.218 80.4535ZM394.079 4.1235C393.627 3.80499 393.003 3.91255 392.685 4.36374L387.494 11.7163C387.176 12.1674 387.284 12.7914 387.735 13.1099C388.186 13.4284 388.81 13.3209 389.128 12.8697L393.742 6.33411L400.278 10.9478C400.729 11.2663 401.353 11.1588 401.671 10.7076C401.99 10.2564 401.882 9.63243 401.431 9.31391L394.079 4.1235ZM282.234 110.615C281.689 110.522 281.173 110.888 281.08 111.433C280.988 111.977 281.354 112.494 281.898 112.586L282.066 111.6L282.234 110.615ZM283.872 113.019C284.405 113.162 284.954 112.846 285.097 112.312C285.24 111.779 284.923 111.231 284.39 111.088L284.131 112.054L283.872 113.019ZM289.506 113.036C289.01 112.792 288.411 112.995 288.167 113.491C287.923 113.986 288.126 114.586 288.622 114.83L289.064 113.933L289.506 113.036ZM292.169 116.879C292.629 117.185 293.25 117.06 293.556 116.6C293.861 116.14 293.737 115.52 293.277 115.214L292.723 116.046L292.169 116.879ZM297.562 118.567C297.157 118.193 296.524 118.217 296.149 118.623C295.774 119.029 295.799 119.661 296.205 120.036L296.884 119.302L297.562 118.567ZM299.041 123.046C299.423 123.444 300.056 123.458 300.455 123.076C300.853 122.694 300.867 122.061 300.485 121.662L299.763 122.354L299.041 123.046ZM304.247 125.1C303.817 124.753 303.188 124.82 302.841 125.25C302.494 125.68 302.561 126.309 302.991 126.656L303.619 125.878L304.247 125.1ZM306.436 129.186C306.896 129.493 307.517 129.368 307.823 128.909C308.129 128.449 308.005 127.828 307.545 127.522L306.991 128.354L306.436 129.186ZM311.95 130.101C311.458 129.851 310.856 130.047 310.605 130.539C310.355 131.032 310.551 131.634 311.043 131.884L311.497 130.993L311.95 130.101ZM314.95 133.633C315.465 133.833 316.044 133.577 316.244 133.062C316.444 132.547 316.188 131.968 315.673 131.768L315.311 132.701L314.95 133.633ZM320.529 133.282C319.992 133.155 319.453 133.488 319.326 134.025C319.199 134.563 319.532 135.101 320.069 135.228L320.299 134.255L320.529 133.282ZM324.302 135.968C324.851 136.03 325.346 135.635 325.408 135.086C325.47 134.537 325.075 134.042 324.526 133.98L324.414 134.974L324.302 135.968ZM329.587 134.152C329.035 134.177 328.608 134.645 328.633 135.197C328.659 135.748 329.126 136.175 329.678 136.15L329.632 135.151L329.587 134.152ZM333.961 135.677C334.505 135.581 334.868 135.063 334.773 134.519C334.677 133.975 334.159 133.612 333.615 133.707L333.788 134.692L333.961 135.677ZM338.521 132.442C337.998 132.621 337.719 133.189 337.897 133.712C338.076 134.234 338.644 134.514 339.167 134.335L338.844 133.389L338.521 132.442ZM342.947 132.798C343.445 132.559 343.655 131.962 343.416 131.464C343.177 130.966 342.579 130.756 342.082 130.995L342.514 131.897L342.947 132.798ZM345.969 128.738C345.515 129.053 345.402 129.676 345.717 130.13C346.032 130.584 346.655 130.696 347.108 130.382L346.539 129.56L345.969 128.738ZM350.127 127.98C350.536 127.609 350.566 126.976 350.195 126.568C349.823 126.159 349.191 126.129 348.782 126.501L349.455 127.241L350.127 127.98ZM351.847 123.218C351.504 123.651 351.576 124.28 352.009 124.623C352.442 124.966 353.071 124.893 353.414 124.46L352.63 123.839L351.847 123.218ZM355.611 121.299C355.898 120.827 355.747 120.212 355.275 119.925C354.803 119.638 354.188 119.789 353.901 120.261L354.756 120.78L355.611 121.299ZM355.953 116.243C355.737 116.752 355.975 117.339 356.484 117.554C356.992 117.769 357.579 117.532 357.794 117.023L356.874 116.633L355.953 116.243ZM359.096 113.417C359.256 112.888 358.957 112.33 358.428 112.17C357.899 112.011 357.341 112.31 357.181 112.838L358.139 113.128L359.096 113.417ZM358.213 108.427C358.121 108.971 358.488 109.487 359.032 109.579C359.577 109.671 360.093 109.304 360.185 108.76L359.199 108.593L358.213 108.427ZM360.638 104.962C360.677 104.411 360.262 103.933 359.711 103.894C359.16 103.855 358.682 104.27 358.643 104.821L359.64 104.891L360.638 104.962ZM358.686 100.285C358.715 100.837 359.185 101.26 359.737 101.231C360.288 101.203 360.712 100.732 360.683 100.181L359.684 100.233L358.686 100.285ZM360.283 96.3671C360.196 95.8217 359.684 95.4502 359.138 95.5373C358.593 95.6245 358.221 96.1372 358.308 96.6826L359.296 96.5248L360.283 96.3671ZM357.265 92.3111C357.438 92.8358 358.003 93.1213 358.527 92.9488C359.052 92.7763 359.338 92.2112 359.165 91.6865L358.215 91.9988L357.265 92.3111ZM357.642 88.0908C357.38 87.6046 356.774 87.4227 356.287 87.6847C355.801 87.9466 355.619 88.5531 355.881 89.0394L356.762 88.5651L357.642 88.0908ZM353.273 85.6797C353.697 86.0337 354.328 85.9769 354.682 85.5529C355.036 85.129 354.979 84.4984 354.555 84.1444L353.914 84.9121L353.273 85.6797ZM350.646 82.0794C350.13 81.8817 349.552 82.1393 349.354 82.655C349.156 83.1706 349.414 83.749 349.929 83.9468L350.288 83.0131L350.646 82.0794ZM344.689 82.488C345.233 82.5852 345.752 82.2233 345.849 81.6796C345.946 81.136 345.585 80.6164 345.041 80.5192L344.865 81.5036L344.689 82.488ZM340.398 80.0624C339.846 80.0535 339.391 80.4939 339.382 81.0461C339.373 81.5983 339.814 82.0532 340.366 82.0622L340.382 81.0623L340.398 80.0624ZM335.019 82.6063C335.556 82.4789 335.889 81.94 335.761 81.4026C335.634 80.8652 335.095 80.5328 334.557 80.6602L334.788 81.6333L335.019 82.6063ZM330.098 82.3675C329.617 82.6392 329.448 83.2492 329.719 83.7301C329.991 84.2109 330.601 84.3805 331.082 84.1089L330.59 83.2382L330.098 82.3675ZM327.369 87.577C327.661 87.1081 327.517 86.4914 327.048 86.1997C326.579 85.908 325.962 86.0517 325.671 86.5207L326.52 87.0489L327.369 87.577ZM324.076 90.7173C323.976 91.2606 324.336 91.7817 324.879 91.8813C325.423 91.9809 325.944 91.6212 326.043 91.078L325.06 90.8977L324.076 90.7173ZM326.153 95.3424C326.028 94.8045 325.49 94.4699 324.952 94.595C324.415 94.7202 324.08 95.2577 324.205 95.7956L325.179 95.569L326.153 95.3424ZM325.679 99.5506C325.948 100.033 326.558 100.205 327.04 99.9348C327.522 99.665 327.694 99.0557 327.424 98.5737L326.551 99.0622L325.679 99.5506ZM330.115 102.071C329.723 101.683 329.09 101.685 328.701 102.078C328.312 102.47 328.315 103.103 328.707 103.492L329.411 102.782L330.115 102.071ZM331.774 105.988C332.234 106.293 332.855 106.168 333.16 105.709C333.466 105.249 333.341 104.628 332.881 104.322L332.328 105.155L331.774 105.988ZM336.854 106.305C336.332 106.126 335.763 106.404 335.583 106.926C335.404 107.448 335.681 108.017 336.204 108.197L336.529 107.251L336.854 106.305ZM340.083 109.124C340.626 109.227 341.149 108.871 341.252 108.328C341.356 107.786 340.999 107.262 340.457 107.159L340.27 108.141L340.083 109.124ZM345.252 107.92C344.704 107.852 344.205 108.242 344.137 108.79C344.07 109.338 344.459 109.837 345.008 109.905L345.13 108.912L345.252 107.92ZM348.995 110.257C349.546 110.285 350.016 109.86 350.044 109.309C350.072 108.757 349.647 108.288 349.096 108.26L349.045 109.258L348.995 110.257ZM353.893 108.23C353.342 108.268 352.926 108.745 352.964 109.296C353.002 109.847 353.479 110.263 354.03 110.225L353.962 109.227L353.893 108.23ZM358.049 109.714C358.592 109.611 358.949 109.088 358.846 108.545C358.743 108.002 358.22 107.646 357.677 107.749L357.863 108.731L358.049 109.714ZM362.248 106.483C361.73 106.675 361.466 107.25 361.658 107.768C361.851 108.286 362.426 108.55 362.944 108.358L362.596 107.42L362.248 106.483ZM366.652 106.681C367.139 106.42 367.321 105.814 367.06 105.327C366.799 104.841 366.192 104.658 365.706 104.919L366.179 105.8L366.652 106.681ZM369.699 102.341C369.26 102.675 369.174 103.302 369.508 103.742C369.842 104.182 370.469 104.268 370.909 103.934L370.304 103.137L369.699 102.341ZM373.988 101.317C374.39 100.938 374.408 100.305 374.029 99.9036C373.651 99.5018 373.018 99.4833 372.616 99.8622L373.302 100.59L373.988 101.317ZM375.921 96.3741C375.562 96.794 375.612 97.4252 376.032 97.7839C376.452 98.1426 377.083 98.0929 377.442 97.6729L376.682 97.0235L375.921 96.3741ZM379.936 94.5325C380.265 94.0888 380.172 93.4625 379.728 93.1337C379.284 92.8048 378.658 92.8979 378.329 93.3416L379.133 93.9371L379.936 94.5325ZM381.074 89.347C380.776 89.8122 380.912 90.4306 381.377 90.7282C381.843 91.0257 382.461 90.8898 382.758 90.4245L381.916 89.8857L381.074 89.347ZM384.819 87.0338C385.096 86.5558 384.933 85.944 384.455 85.6674C383.977 85.3907 383.365 85.5539 383.089 86.0319L383.954 86.5328L384.819 87.0338ZM385.43 81.7581C385.175 82.2481 385.366 82.8519 385.856 83.1066C386.346 83.3614 386.95 83.1706 387.205 82.6806L386.317 82.2194L385.43 81.7581ZM388.944 79.1614C389.174 78.6591 388.953 78.0657 388.451 77.836C387.948 77.6062 387.355 77.8271 387.125 78.3294L388.035 78.7454L388.944 79.1614ZM388.896 74.0154C388.706 74.5338 388.971 75.1085 389.49 75.2991C390.008 75.4897 390.583 75.224 390.773 74.7057L389.835 74.3605L388.896 74.0154ZM392.003 71.0612C392.167 70.5336 391.871 69.9736 391.343 69.8104C390.816 69.6473 390.256 69.9428 390.093 70.4704L391.048 70.7658L392.003 71.0612ZM391.346 65.955C391.213 66.491 391.54 67.0333 392.076 67.1663C392.612 67.2993 393.154 66.9725 393.287 66.4365L392.317 66.1957L391.346 65.955ZM394.134 62.7009C394.246 62.1601 393.898 61.6311 393.357 61.5194C392.816 61.4077 392.287 61.7556 392.176 62.2965L393.155 62.4987L394.134 62.7009ZM393.023 57.6747C392.935 58.22 393.306 58.7333 393.851 58.8213C394.396 58.9093 394.91 58.5386 394.998 57.9934L394.01 57.8341L393.023 57.6747ZM395.547 54.2085C395.618 53.6608 395.232 53.1593 394.684 53.0883C394.136 53.0173 393.635 53.4037 393.564 53.9514L394.555 54.08L395.547 54.2085ZM394.086 49.2732C394.034 49.823 394.438 50.3108 394.987 50.3625C395.537 50.4143 396.025 50.0105 396.077 49.4607L395.081 49.3669L394.086 49.2732ZM396.386 45.6546C396.423 45.1036 396.007 44.6263 395.456 44.5886C394.905 44.5509 394.428 44.9669 394.39 45.5179L395.388 45.5862L396.386 45.6546ZM394.642 40.8111C394.62 41.363 395.05 41.8278 395.602 41.8493C396.154 41.8708 396.619 41.4409 396.64 40.889L395.641 40.85L394.642 40.8111ZM396.747 37.0765C396.756 36.5243 396.316 36.069 395.764 36.0596C395.212 36.0502 394.757 36.4902 394.747 37.0424L395.747 37.0594L396.747 37.0765ZM394.766 32.3273C394.771 32.8796 395.222 33.3233 395.775 33.3184C396.327 33.3135 396.771 32.8619 396.766 32.3096L395.766 32.3185L394.766 32.3273ZM396.694 28.4924C396.678 27.9403 396.218 27.5057 395.666 27.5215C395.113 27.5374 394.679 27.9978 394.695 28.5499L395.694 28.5211L396.694 28.4924ZM394.502 23.8356C394.531 24.3871 395.002 24.8104 395.553 24.7811C396.105 24.7519 396.528 24.281 396.499 23.7295L395.5 23.7825L394.502 23.8356ZM396.26 19.9306C396.22 19.3798 395.741 18.9656 395.19 19.0056C394.64 19.0456 394.225 19.5246 394.265 20.0754L395.263 20.003L396.26 19.9306ZM393.865 15.3705C393.919 15.9201 394.408 16.322 394.957 16.2681C395.507 16.2141 395.909 15.7248 395.855 15.1752L394.86 15.2728L393.865 15.3705ZM395.442 11.385C395.376 10.8367 394.877 10.4457 394.329 10.5118C393.781 10.5779 393.39 11.076 393.456 11.6243L394.449 11.5046L395.442 11.385ZM392.818 6.9557C392.902 7.50149 393.413 7.87549 393.959 7.79105C394.504 7.70662 394.878 7.19571 394.794 6.64992L393.806 6.80281L392.818 6.9557ZM282.066 111.6L281.898 112.586C282.566 112.7 283.224 112.846 283.872 113.019L284.131 112.054L284.39 111.088C283.685 110.899 282.966 110.739 282.234 110.615L282.066 111.6ZM289.064 113.933L288.622 114.83C289.897 115.458 291.087 116.16 292.169 116.879L292.723 116.046L293.277 115.214C292.132 114.452 290.867 113.707 289.506 113.036L289.064 113.933ZM296.884 119.302L296.205 120.036C296.79 120.577 297.266 121.065 297.62 121.465L298.369 120.802L299.118 120.139C298.712 119.681 298.189 119.146 297.562 118.567L296.884 119.302ZM298.369 120.802L297.602 121.444C298.032 121.958 298.512 122.494 299.041 123.046L299.763 122.354L300.485 121.662C299.985 121.141 299.535 120.637 299.136 120.16L298.369 120.802ZM303.619 125.878L302.991 126.656C304.049 127.511 305.2 128.363 306.436 129.186L306.991 128.354L307.545 127.522C306.361 126.733 305.259 125.918 304.247 125.1L303.619 125.878ZM311.497 130.993L311.043 131.884C312.289 132.518 313.593 133.107 314.95 133.633L315.311 132.701L315.673 131.768C314.382 131.268 313.139 130.707 311.95 130.101L311.497 130.993ZM320.299 134.255L320.069 135.228C321.442 135.553 322.854 135.804 324.302 135.968L324.414 134.974L324.526 133.98C323.162 133.826 321.828 133.589 320.529 133.282L320.299 134.255ZM329.632 135.151L329.678 136.15C331.083 136.086 332.512 135.932 333.961 135.677L333.788 134.692L333.615 133.707C332.252 133.947 330.908 134.092 329.587 134.152L329.632 135.151ZM338.844 133.389L339.167 134.335C339.836 134.107 340.507 133.856 341.181 133.581L340.803 132.655L340.426 131.729C339.788 131.989 339.153 132.227 338.521 132.442L338.844 133.389ZM340.803 132.655L341.181 133.581C341.785 133.334 342.374 133.073 342.947 132.798L342.514 131.897L342.082 130.995C341.545 131.253 340.993 131.498 340.426 131.729L340.803 132.655ZM346.539 129.56L347.108 130.382C348.186 129.635 349.191 128.832 350.127 127.98L349.455 127.241L348.782 126.501C347.91 127.294 346.973 128.042 345.969 128.738L346.539 129.56ZM352.63 123.839L353.414 124.46C354.219 123.444 354.95 122.387 355.611 121.299L354.756 120.78L353.901 120.261C353.282 121.281 352.598 122.269 351.847 123.218L352.63 123.839ZM356.874 116.633L357.794 117.023C358.297 115.838 358.729 114.632 359.096 113.417L358.139 113.128L357.181 112.838C356.834 113.988 356.426 115.126 355.953 116.243L356.874 116.633ZM359.199 108.593L360.185 108.76C360.4 107.487 360.549 106.218 360.638 104.962L359.64 104.891L358.643 104.821C358.559 106.014 358.417 107.219 358.213 108.427L359.199 108.593ZM359.684 100.233L360.683 100.181C360.615 98.872 360.48 97.5959 360.283 96.3671L359.296 96.5248L358.308 96.6826C358.493 97.8397 358.621 99.0453 358.686 100.285L359.684 100.233ZM358.215 91.9988L359.165 91.6865C358.738 90.3866 358.228 89.1784 357.642 88.0908L356.762 88.5651L355.881 89.0394C356.404 90.0105 356.87 91.1085 357.265 92.3111L358.215 91.9988ZM353.914 84.9121L354.555 84.1444C354.003 83.6835 353.414 83.2966 352.789 82.999L352.359 83.9017L351.929 84.8044C352.386 85.0225 352.836 85.3144 353.273 85.6797L353.914 84.9121ZM352.359 83.9017L352.789 82.999C352.087 82.6646 351.372 82.3579 350.646 82.0794L350.288 83.0131L349.929 83.9468C350.608 84.2069 351.275 84.493 351.929 84.8044L352.359 83.9017ZM344.865 81.5036L345.041 80.5192C343.486 80.2412 341.927 80.0872 340.398 80.0624L340.382 81.0623L340.366 82.0622C341.783 82.0851 343.235 82.2281 344.689 82.488L344.865 81.5036ZM334.788 81.6333L334.557 80.6602C332.957 81.0395 331.45 81.6037 330.098 82.3675L330.59 83.2382L331.082 84.1089C332.249 83.4499 333.575 82.9484 335.019 82.6063L334.788 81.6333ZM326.52 87.0489L325.671 86.5207C325.243 87.2079 324.885 87.9498 324.603 88.7461L325.546 89.0793L326.489 89.4125C326.723 88.7521 327.018 88.141 327.369 87.577L326.52 87.0489ZM325.546 89.0793L324.603 88.7461C324.371 89.4052 324.196 90.063 324.076 90.7173L325.06 90.8977L326.043 91.078C326.144 90.5288 326.291 89.9731 326.489 89.4125L325.546 89.0793ZM325.179 95.569L324.205 95.7956C324.512 97.1153 325.02 98.374 325.679 99.5506L326.551 99.0622L327.424 98.5737C326.848 97.5445 326.413 96.461 326.153 95.3424L325.179 95.569ZM329.411 102.782L328.707 103.492C329.649 104.425 330.684 105.263 331.774 105.988L332.328 105.155L332.881 104.322C331.896 103.667 330.962 102.91 330.115 102.071L329.411 102.782ZM336.529 107.251L336.204 108.197C336.846 108.418 337.491 108.598 338.134 108.733L338.34 107.754L338.546 106.776C337.989 106.658 337.423 106.501 336.854 106.305L336.529 107.251ZM338.34 107.754L338.134 108.733C338.789 108.871 339.439 109.001 340.083 109.124L340.27 108.141L340.457 107.159C339.826 107.039 339.189 106.911 338.546 106.776L338.34 107.754ZM345.13 108.912L345.008 109.905C346.357 110.071 347.686 110.191 348.995 110.257L349.045 109.258L349.096 108.26C347.84 108.196 346.56 108.081 345.252 107.92L345.13 108.912ZM353.962 109.227L354.03 110.225C355.39 110.131 356.729 109.964 358.049 109.714L357.863 108.731L357.677 107.749C356.44 107.983 355.179 108.141 353.893 108.23L353.962 109.227ZM362.596 107.42L362.944 108.358C364.198 107.892 365.433 107.336 366.652 106.681L366.179 105.8L365.706 104.919C364.568 105.53 363.416 106.049 362.248 106.483L362.596 107.42ZM370.304 103.137L370.909 103.934C371.947 103.145 372.973 102.274 373.988 101.317L373.302 100.59L372.616 99.8622C371.65 100.773 370.678 101.597 369.699 102.341L370.304 103.137ZM376.682 97.0235L377.442 97.6729C378.279 96.6927 379.11 95.6469 379.936 94.5325L379.133 93.9371L378.329 93.3416C377.529 94.4214 376.726 95.4311 375.921 96.3741L376.682 97.0235ZM381.916 89.8857L382.758 90.4245C383.448 89.3465 384.135 88.2169 384.819 87.0338L383.954 86.5328L383.089 86.0319C382.418 87.191 381.746 88.2953 381.074 89.347L381.916 89.8857ZM386.317 82.2194L387.205 82.6806C387.507 82.0984 387.81 81.5052 388.112 80.9007L387.218 80.4535L386.323 80.0062C386.025 80.6015 385.728 81.1854 385.43 81.7581L386.317 82.2194ZM387.218 80.4535L388.112 80.9007C388.398 80.3289 388.675 79.7489 388.944 79.1614L388.035 78.7454L387.125 78.3294C386.866 78.8966 386.598 79.4557 386.323 80.0062L387.218 80.4535ZM389.835 74.3605L390.773 74.7057C391.212 73.513 391.621 72.2969 392.003 71.0612L391.048 70.7658L390.093 70.4704C389.72 71.6747 389.322 72.8575 388.896 74.0154L389.835 74.3605ZM392.317 66.1957L393.287 66.4365C393.593 65.2046 393.875 63.9583 394.134 62.7009L393.155 62.4987L392.176 62.2965C391.921 63.5294 391.645 64.7499 391.346 65.955L392.317 66.1957ZM394.01 57.8341L394.998 57.9934C395.2 56.7377 395.383 55.475 395.547 54.2085L394.555 54.08L393.564 53.9514C393.402 55.1983 393.222 56.4404 393.023 57.6747L394.01 57.8341ZM395.081 49.3669L396.077 49.4607C396.196 48.1911 396.299 46.9213 396.386 45.6546L395.388 45.5862L394.39 45.5179C394.305 46.7685 394.203 48.0212 394.086 49.2732L395.081 49.3669ZM395.641 40.85L396.64 40.889C396.69 39.6101 396.725 38.3382 396.747 37.0765L395.747 37.0594L394.747 37.0424C394.726 38.29 394.691 39.5473 394.642 40.8111L395.641 40.85ZM395.766 32.3185L396.766 32.3096C396.754 31.0203 396.73 29.7467 396.694 28.4924L395.694 28.5211L394.695 28.5499C394.73 29.7913 394.755 31.0517 394.766 32.3273L395.766 32.3185ZM395.5 23.7825L396.499 23.7295C396.43 22.4334 396.35 21.1656 396.26 19.9306L395.263 20.003L394.265 20.0754C394.354 21.2977 394.434 22.5526 394.502 23.8356L395.5 23.7825ZM394.86 15.2728L395.855 15.1752C395.726 13.8571 395.587 12.5912 395.442 11.385L394.449 11.5046L393.456 11.6243C393.6 12.8157 393.737 14.0669 393.865 15.3705L394.86 15.2728ZM393.806 6.80281L394.794 6.64992C394.693 5.99445 394.59 5.36735 394.487 4.77058L393.502 4.94045L392.516 5.11032C392.617 5.6952 392.718 6.31095 392.818 6.9557L393.806 6.80281Z" fill="#1A76BB"/>
<path d="M204.908 119.406L205.48 120.226L205.553 120.175L205.616 120.112L204.908 119.406ZM129.823 111.316L128.869 111.615L129.823 111.316ZM143.425 80.7058L143.462 79.7065L143.425 80.7058ZM147.234 111.316L147.703 112.199L147.234 111.316ZM72.1484 84.7476L71.3002 85.2773L72.1484 84.7476ZM51.1709 0.382125C50.8296 -0.0521101 50.201 -0.127482 49.7668 0.213778L42.6905 5.77493C42.2562 6.11618 42.1809 6.74485 42.5221 7.17908C42.8634 7.61332 43.4921 7.68869 43.9263 7.34743L50.2163 2.40419L55.1596 8.69421C55.5008 9.12844 56.1295 9.20382 56.5637 8.86256C56.9979 8.5213 57.0733 7.89263 56.7321 7.4584L51.1709 0.382125ZM49.1778 2.84928C49.1242 3.39896 49.5263 3.88803 50.076 3.94167C50.6257 3.9953 51.1148 3.59318 51.1684 3.04351L50.1731 2.9464L49.1778 2.84928ZM50.8276 7.87092C50.852 7.31917 50.4245 6.85211 49.8727 6.82771C49.321 6.80331 48.8539 7.2308 48.8295 7.78255L49.8285 7.82673L50.8276 7.87092ZM48.7351 11.7361C48.733 12.2884 49.179 12.7378 49.7313 12.74C50.2835 12.7421 50.733 12.2961 50.7351 11.7438L49.7351 11.74L48.7351 11.7361ZM50.8335 16.5877C50.8092 16.0359 50.3422 15.6083 49.7905 15.6326C49.2387 15.6569 48.8111 16.1239 48.8354 16.6756L49.8344 16.6316L50.8335 16.5877ZM49.0812 20.6188C49.1255 21.1693 49.6077 21.5797 50.1582 21.5354C50.7087 21.4911 51.1191 21.0089 51.0748 20.4584L50.078 20.5386L49.0812 20.6188ZM51.5684 25.283C51.5005 24.7349 51.0012 24.3456 50.4531 24.4135C49.905 24.4814 49.5157 24.9808 49.5836 25.5289L50.576 25.4059L51.5684 25.283ZM50.1332 29.4379C50.2189 29.9835 50.7307 30.3563 51.2763 30.2705C51.8219 30.1848 52.1947 29.673 52.1089 29.1274L51.1211 29.2827L50.1332 29.4379ZM52.9561 33.9069C52.8493 33.365 52.3234 33.0123 51.7816 33.1191C51.2397 33.2259 50.887 33.7518 50.9938 34.2936L51.975 34.1002L52.9561 33.9069ZM51.8142 38.1521C51.9369 38.6906 52.473 39.0276 53.0114 38.9048C53.5499 38.7821 53.8869 38.246 53.7641 37.7076L52.7892 37.9298L51.8142 38.1521ZM54.9278 42.4235C54.7862 41.8897 54.2386 41.5718 53.7048 41.7135C53.171 41.8551 52.8531 42.4027 52.9948 42.9365L53.9613 42.68L54.9278 42.4235ZM54.0579 46.733C54.2139 47.2627 54.7699 47.5657 55.2997 47.4096C55.8295 47.2536 56.1324 46.6976 55.9763 46.1678L55.0171 46.4504L54.0579 46.733ZM57.426 50.807C57.2528 50.2826 56.6872 49.9979 56.1628 50.1711C55.6384 50.3444 55.3537 50.9099 55.527 51.4343L56.4765 51.1207L57.426 50.807ZM56.8102 55.1596C56.9966 55.6795 57.5692 55.9498 58.0891 55.7634C58.6089 55.577 58.8793 55.0044 58.6928 54.4845L57.7515 54.8221L56.8102 55.1596ZM60.4049 59.0365C60.2026 58.5226 59.622 58.27 59.1081 58.4723C58.5942 58.6747 58.3416 59.2553 58.544 59.7692L59.4744 59.4028L60.4049 59.0365ZM60.0301 63.4137C60.2448 63.9226 60.8313 64.1611 61.3402 63.9464C61.849 63.7317 62.0875 63.1452 61.8728 62.6363L60.9514 63.025L60.0301 63.4137ZM63.8311 67.0901C63.6012 66.5879 63.0078 66.3672 62.5056 66.597C62.0034 66.8269 61.7827 67.4203 62.0125 67.9225L62.9218 67.5063L63.8311 67.0901ZM63.695 71.4846C63.9369 71.9811 64.5354 72.1875 65.0319 71.9457C65.5284 71.7038 65.7349 71.1052 65.493 70.6087L64.594 71.0467L63.695 71.4846ZM67.6891 74.9472C67.4321 74.4583 66.8274 74.2704 66.3386 74.5274C65.8497 74.7844 65.6618 75.389 65.9188 75.8778L66.8039 75.4125L67.6891 74.9472ZM67.7946 79.339C68.064 79.8211 68.6732 79.9936 69.1553 79.7242C69.6375 79.4548 69.8099 78.8456 69.5406 78.3635L68.6676 78.8512L67.7946 79.339ZM71.9814 82.5651C71.6957 82.0924 71.081 81.9408 70.6083 82.2264C70.1356 82.5121 69.984 83.1268 70.2696 83.5995L71.1255 83.0823L71.9814 82.5651ZM72.4743 87.0881C72.7826 87.5463 73.404 87.6678 73.8622 87.3595C74.3204 87.0511 74.4419 86.4297 74.1336 85.9715L73.3039 86.5298L72.4743 87.0881ZM77.2053 90.1361C76.8584 89.7064 76.2288 89.6393 75.7991 89.9863C75.3694 90.3332 75.3023 90.9628 75.6492 91.3925L76.4273 90.7643L77.2053 90.1361ZM78.4658 94.6368C78.8426 95.0406 79.4753 95.0625 79.8791 94.6857C80.2829 94.3089 80.3048 93.6762 79.928 93.2724L79.1969 93.9546L78.4658 94.6368ZM83.6335 96.9006C83.2218 96.5324 82.5896 96.5677 82.2215 96.9793C81.8533 97.3909 81.8885 98.0231 82.3001 98.3913L82.9668 97.646L83.6335 96.9006ZM85.5956 101.132C86.0325 101.47 86.6606 101.39 86.9983 100.953C87.3361 100.516 87.2557 99.8877 86.8187 99.55L86.2071 100.341L85.5956 101.132ZM91.062 102.54C90.597 102.242 89.9785 102.377 89.6805 102.842C89.3824 103.307 89.5178 103.925 89.9828 104.224L90.5224 103.382L91.062 102.54ZM93.6676 106.411C94.1518 106.677 94.7596 106.499 95.0253 106.015C95.291 105.531 95.1138 104.923 94.6296 104.657L94.1486 105.534L93.6676 106.411ZM99.2835 106.966C98.7792 106.741 98.1878 106.967 97.9627 107.472C97.7375 107.976 97.9638 108.567 98.4681 108.793L98.8758 107.879L99.2835 106.966ZM102.429 110.414C102.946 110.607 103.522 110.344 103.715 109.827C103.909 109.309 103.646 108.733 103.129 108.54L102.779 109.477L102.429 110.414ZM108.068 110.176C107.538 110.022 106.983 110.327 106.829 110.857C106.674 111.388 106.979 111.943 107.51 112.097L107.789 111.137L108.068 110.176ZM111.645 113.172C112.183 113.296 112.72 112.96 112.844 112.422C112.967 111.884 112.632 111.347 112.093 111.223L111.869 112.198L111.645 113.172ZM117.206 112.216C116.66 112.129 116.148 112.501 116.061 113.046C115.974 113.592 116.346 114.104 116.891 114.191L117.049 113.204L117.206 112.216ZM121.134 114.751C121.684 114.808 122.176 114.41 122.233 113.86C122.291 113.311 121.892 112.819 121.343 112.761L121.239 113.756L121.134 114.751ZM126.54 113.133C125.988 113.112 125.524 113.542 125.503 114.094C125.482 114.646 125.912 115.11 126.464 115.131L126.502 114.132L126.54 113.133ZM130.735 115.178C131.287 115.169 131.727 114.714 131.718 114.161C131.709 113.609 131.254 113.169 130.701 113.178L130.718 114.178L130.735 115.178ZM135.901 112.9C135.351 112.951 134.947 113.438 134.997 113.988C135.048 114.538 135.536 114.942 136.085 114.891L135.993 113.895L135.901 112.9ZM140.345 114.342C140.889 114.25 141.256 113.734 141.164 113.189C141.072 112.645 140.556 112.278 140.012 112.37L140.178 113.356L140.345 114.342ZM144.973 111.18C144.45 111.357 144.17 111.925 144.348 112.448C144.525 112.971 145.093 113.251 145.616 113.073L145.294 112.126L144.973 111.18ZM149.658 110.787C150.063 110.411 150.086 109.779 149.711 109.374C149.335 108.969 148.702 108.945 148.297 109.321L148.978 110.054L149.658 110.787ZM151.178 105.226C150.938 105.723 151.146 106.321 151.643 106.562C152.14 106.802 152.738 106.594 152.979 106.097L152.078 105.661L151.178 105.226ZM154.543 101.877C154.688 101.344 154.374 100.795 153.842 100.649C153.309 100.504 152.759 100.818 152.614 101.351L153.578 101.614L154.543 101.877ZM153.465 96.2271C153.43 96.7783 153.849 97.2531 154.4 97.2876C154.952 97.3221 155.426 96.9032 155.461 96.352L154.463 96.2896L153.465 96.2271ZM155.34 91.8518C155.273 91.3037 154.774 90.914 154.226 90.9815C153.677 91.049 153.288 91.5481 153.355 92.0962L154.348 91.974L155.34 91.8518ZM151.995 87.2241C152.235 87.7218 152.832 87.9313 153.33 87.692C153.828 87.4527 154.037 86.8551 153.798 86.3574L152.896 86.7907L151.995 87.2241ZM151.027 82.5843C150.617 82.2142 149.985 82.2466 149.615 82.6565C149.245 83.0665 149.277 83.6988 149.687 84.0689L150.357 83.3266L151.027 82.5843ZM145.379 81.9377C145.92 82.0489 146.448 81.7004 146.56 81.1594C146.671 80.6185 146.322 80.0898 145.781 79.9787L145.58 80.9582L145.379 81.9377ZM141.567 79.7053C141.015 79.7259 140.584 80.19 140.605 80.7419C140.625 81.2938 141.09 81.7245 141.641 81.7039L141.604 80.7046L141.567 79.7053ZM137.414 82.3501C137.944 82.1956 138.249 81.6406 138.094 81.1103C137.94 80.5801 137.385 80.2754 136.855 80.4299L137.134 81.39L137.414 82.3501ZM133.298 81.9914C132.828 82.2815 132.682 82.8977 132.972 83.3676C133.262 83.8375 133.879 83.9832 134.348 83.693L133.823 82.8422L133.298 81.9914ZM131.306 86.4891C131.636 86.0459 131.543 85.4195 131.1 85.09C130.657 84.7606 130.03 84.8529 129.701 85.2961L130.504 85.8926L131.306 86.4891ZM127.829 88.6925C127.625 89.2057 127.875 89.7871 128.389 89.9911C128.902 90.1951 129.483 89.9443 129.687 89.4311L128.758 89.0618L127.829 88.6925ZM128.621 93.5832C128.698 93.0364 128.318 92.5304 127.771 92.4531C127.224 92.3757 126.718 92.7563 126.641 93.3032L127.631 93.4432L128.621 93.5832ZM126.378 97.0545C126.375 97.6068 126.821 98.0569 127.373 98.0598C127.925 98.0628 128.375 97.6175 128.378 97.0652L127.378 97.0599L126.378 97.0545ZM128.645 101.466C128.579 100.918 128.081 100.527 127.533 100.593C126.984 100.659 126.594 101.157 126.66 101.705L127.652 101.586L128.645 101.466ZM127.25 105.366C127.359 105.907 127.886 106.258 128.427 106.15C128.969 106.041 129.32 105.514 129.211 104.973L128.231 105.169L127.25 105.366ZM130.264 109.303C130.114 108.772 129.561 108.463 129.029 108.614C128.498 108.765 128.19 109.318 128.34 109.849L129.302 109.576L130.264 109.303ZM129.572 113.497C129.792 114.004 130.381 114.236 130.888 114.016C131.394 113.796 131.627 113.207 131.407 112.701L130.49 113.099L129.572 113.497ZM133.678 116.624C133.353 116.178 132.727 116.08 132.281 116.406C131.835 116.731 131.737 117.357 132.063 117.803L132.871 117.214L133.678 116.624ZM134.618 120.817C135.004 121.212 135.637 121.221 136.033 120.835C136.428 120.45 136.436 119.817 136.051 119.421L135.335 120.119L134.618 120.817ZM139.519 122.474C139.079 122.139 138.451 122.225 138.117 122.665C137.783 123.104 137.869 123.732 138.308 124.066L138.913 123.27L139.519 122.474ZM141.539 126.265C142.011 126.553 142.626 126.403 142.914 125.932C143.201 125.46 143.052 124.845 142.58 124.557L142.06 125.411L141.539 126.265ZM146.685 126.74C146.184 126.509 145.59 126.728 145.359 127.229C145.127 127.731 145.346 128.325 145.848 128.556L146.267 127.648L146.685 126.74ZM149.452 130.035C149.971 130.223 150.544 129.955 150.733 129.435C150.921 128.916 150.652 128.343 150.133 128.155L149.792 129.095L149.452 130.035ZM154.595 129.522C154.059 129.386 153.515 129.71 153.38 130.246C153.244 130.781 153.568 131.325 154.103 131.461L154.349 130.491L154.595 129.522ZM157.904 132.272C158.448 132.367 158.966 132.003 159.061 131.459C159.156 130.915 158.792 130.396 158.248 130.302L158.076 131.287L157.904 132.272ZM162.883 130.894C162.333 130.849 161.85 131.258 161.804 131.809C161.759 132.359 162.169 132.842 162.719 132.887L162.801 131.891L162.883 130.894ZM166.599 133.07C167.151 133.077 167.604 132.635 167.611 132.082C167.618 131.53 167.175 131.077 166.623 131.07L166.611 132.07L166.599 133.07ZM171.299 130.928C170.748 130.968 170.334 131.447 170.374 131.998C170.414 132.549 170.893 132.963 171.443 132.923L171.371 131.926L171.299 130.928ZM175.3 132.515C175.847 132.439 176.229 131.934 176.153 131.387C176.077 130.84 175.572 130.458 175.025 130.534L175.163 131.525L175.3 132.515ZM179.639 129.705C179.1 129.824 178.759 130.358 178.878 130.897C178.997 131.436 179.53 131.777 180.07 131.658L179.854 130.682L179.639 129.705ZM183.821 130.709C184.352 130.558 184.66 130.004 184.508 129.473C184.357 128.942 183.803 128.634 183.272 128.786L183.547 129.748L183.821 130.709ZM187.736 127.331C187.217 127.521 186.951 128.096 187.141 128.614C187.331 129.133 187.906 129.399 188.424 129.209L188.08 128.27L187.736 127.331ZM192.021 127.774C192.528 127.555 192.761 126.967 192.542 126.46C192.323 125.953 191.735 125.719 191.228 125.938L191.624 126.856L192.021 127.774ZM195.471 123.934C194.98 124.186 194.786 124.789 195.038 125.281C195.29 125.772 195.893 125.966 196.384 125.713L195.928 124.824L195.471 123.934ZM199.774 123.862C200.252 123.586 200.414 122.974 200.138 122.496C199.861 122.018 199.249 121.855 198.771 122.132L199.272 122.997L199.774 123.862ZM202.766 119.653C202.305 119.958 202.179 120.578 202.484 121.039C202.789 121.499 203.41 121.625 203.87 121.32L203.318 120.486L202.766 119.653ZM206.801 119.115C207.241 118.781 207.328 118.154 206.995 117.714C206.661 117.273 206.034 117.187 205.594 117.52L206.197 118.317L206.801 119.115ZM209.208 115.121C208.734 115.405 208.581 116.019 208.864 116.493C209.148 116.967 209.763 117.121 210.236 116.837L209.722 115.979L209.208 115.121ZM213.136 115.198C213.623 114.938 213.807 114.332 213.546 113.845C213.286 113.358 212.68 113.174 212.193 113.435L212.664 114.317L213.136 115.198ZM216.008 111.509C215.509 111.747 215.298 112.344 215.536 112.842C215.774 113.34 216.371 113.551 216.87 113.313L216.439 112.411L216.008 111.509ZM219.919 111.913C220.424 111.69 220.653 111.1 220.43 110.595C220.207 110.089 219.617 109.861 219.111 110.084L219.515 110.999L219.919 111.913ZM223.035 108.428C222.523 108.635 222.275 109.217 222.482 109.729C222.689 110.242 223.271 110.489 223.784 110.282L223.409 109.355L223.035 108.428ZM50.3847 1.00003L49.3918 0.880991C49.3131 1.53673 49.2419 2.19287 49.1778 2.84928L50.1731 2.9464L51.1684 3.04351C51.231 2.40157 51.3007 1.76005 51.3775 1.11907L50.3847 1.00003ZM49.8285 7.82673L48.8295 7.78255C48.7712 9.10095 48.7402 10.4192 48.7351 11.7361L49.7351 11.74L50.7351 11.7438C50.7401 10.4531 50.7705 9.16181 50.8276 7.87092L49.8285 7.82673ZM49.8344 16.6316L48.8354 16.6756C48.8934 17.9929 48.9758 19.3076 49.0812 20.6188L50.078 20.5386L51.0748 20.4584C50.9712 19.1708 50.8904 17.8802 50.8335 16.5877L49.8344 16.6316ZM50.576 25.4059L49.5836 25.5289C49.7457 26.8371 49.9293 28.1405 50.1332 29.4379L51.1211 29.2827L52.1089 29.1274C51.9084 27.851 51.7278 26.5692 51.5684 25.283L50.576 25.4059ZM51.975 34.1002L50.9938 34.2936C51.2489 35.5876 51.5228 36.8741 51.8142 38.1521L52.7892 37.9298L53.7641 37.7076C53.477 36.4483 53.2072 35.181 52.9561 33.9069L51.975 34.1002ZM53.9613 42.68L52.9948 42.9365C53.3334 44.2125 53.6883 45.4784 54.0579 46.733L55.0171 46.4504L55.9763 46.1678C55.6118 44.9302 55.2618 43.6817 54.9278 42.4235L53.9613 42.68ZM56.4765 51.1207L55.527 51.4343C55.9417 52.6899 56.37 53.9321 56.8102 55.1596L57.7515 54.8221L58.6928 54.4845C58.2582 53.2725 57.8354 52.0462 57.426 50.807L56.4765 51.1207ZM59.4744 59.4028L58.544 59.7692C59.0293 61.0019 59.5253 62.2172 60.0301 63.4137L60.9514 63.025L61.8728 62.6363C61.3741 61.4543 60.8843 60.2539 60.4049 59.0365L59.4744 59.4028ZM62.9218 67.5063L62.0125 67.9225C62.5667 69.1332 63.1282 70.3212 63.695 71.4846L64.594 71.0467L65.493 70.6087C64.9332 69.4595 64.3785 68.2861 63.8311 67.0901L62.9218 67.5063ZM66.8039 75.4125L65.9188 75.8778C66.5419 77.0631 67.1681 78.2175 67.7946 79.339L68.6676 78.8512L69.5406 78.3635C68.9223 77.2569 68.3043 76.1175 67.6891 74.9472L66.8039 75.4125ZM71.1255 83.0823L70.2696 83.5995C70.6142 84.1697 70.9579 84.7291 71.3002 85.2773L72.1484 84.7476L72.9966 84.2179C72.6595 83.6781 72.321 83.1271 71.9814 82.5651L71.1255 83.0823ZM72.1484 84.7476L71.3002 85.2773C71.6845 85.8925 72.0759 86.4961 72.4743 87.0881L73.3039 86.5298L74.1336 85.9715C73.7479 85.3984 73.3688 84.8139 72.9966 84.2179L72.1484 84.7476ZM76.4273 90.7643L75.6492 91.3925C76.562 92.523 77.5018 93.6038 78.4658 94.6368L79.1969 93.9546L79.928 93.2724C78.9964 92.274 78.0879 91.2292 77.2053 90.1361L76.4273 90.7643ZM82.9668 97.646L82.3001 98.3913C83.3776 99.355 84.4772 100.268 85.5956 101.132L86.2071 100.341L86.8187 99.55C85.7375 98.7143 84.6747 97.8319 83.6335 96.9006L82.9668 97.646ZM90.5224 103.382L89.9828 104.224C91.1972 105.002 92.4268 105.73 93.6676 106.411L94.1486 105.534L94.6296 104.657C93.4277 103.998 92.2372 103.293 91.062 102.54L90.5224 103.382ZM98.8758 107.879L98.4681 108.793C99.7835 109.38 101.105 109.919 102.429 110.414L102.779 109.477L103.129 108.54C101.843 108.06 100.56 107.536 99.2835 106.966L98.8758 107.879ZM107.789 111.137L107.51 112.097C108.894 112.5 110.275 112.857 111.645 113.172L111.869 112.198L112.093 111.223C110.759 110.916 109.415 110.568 108.068 110.176L107.789 111.137ZM117.049 113.204L116.891 114.191C118.327 114.42 119.744 114.605 121.134 114.751L121.239 113.756L121.343 112.761C119.987 112.619 118.605 112.439 117.206 112.216L117.049 113.204ZM126.502 114.132L126.464 115.131C127.933 115.187 129.36 115.201 130.735 115.178L130.718 114.178L130.701 113.178C129.363 113.201 127.973 113.187 126.54 113.133L126.502 114.132ZM135.993 113.895L136.085 114.891C137.611 114.75 139.036 114.563 140.345 114.342L140.178 113.356L140.012 112.37C138.756 112.582 137.379 112.763 135.901 112.9L135.993 113.895ZM145.294 112.126L145.616 113.073C146.418 112.801 147.121 112.508 147.703 112.199L147.234 111.316L146.765 110.433C146.303 110.678 145.705 110.931 144.973 111.18L145.294 112.126ZM147.234 111.316L147.703 112.199C148.4 111.829 149.052 111.349 149.658 110.787L148.978 110.054L148.297 109.321C147.8 109.783 147.287 110.155 146.765 110.433L147.234 111.316ZM152.078 105.661L152.979 106.097C153.611 104.792 154.137 103.366 154.543 101.877L153.578 101.614L152.614 101.351C152.237 102.731 151.752 104.041 151.178 105.226L152.078 105.661ZM154.463 96.2896L155.461 96.352C155.555 94.8401 155.521 93.3227 155.34 91.8518L154.348 91.974L153.355 92.0962C153.52 93.4335 153.552 94.8267 153.465 96.2271L154.463 96.2896ZM152.896 86.7907L153.798 86.3574C153.111 84.9301 152.198 83.6415 151.027 82.5843L150.357 83.3266L149.687 84.0689C150.64 84.9288 151.405 85.9972 151.995 87.2241L152.896 86.7907ZM145.58 80.9582L145.781 79.9787C145.049 79.8282 144.276 79.7363 143.462 79.7065L143.425 80.7058L143.388 81.7051C144.099 81.7311 144.761 81.8109 145.379 81.9377L145.58 80.9582ZM143.425 80.7058L143.462 79.7065C142.812 79.6827 142.18 79.6824 141.567 79.7053L141.604 80.7046L141.641 81.7039C142.203 81.683 142.785 81.683 143.388 81.7051L143.425 80.7058ZM137.134 81.39L136.855 80.4299C135.549 80.8102 134.363 81.3335 133.298 81.9914L133.823 82.8422L134.348 83.693C135.251 83.1357 136.27 82.6832 137.414 82.3501L137.134 81.39ZM130.504 85.8926L129.701 85.2961C128.941 86.3191 128.319 87.4575 127.829 88.6925L128.758 89.0618L129.687 89.4311C130.12 88.3429 130.659 87.3599 131.306 86.4891L130.504 85.8926ZM127.631 93.4432L126.641 93.3032C126.471 94.5005 126.385 95.7538 126.378 97.0545L127.378 97.0599L128.378 97.0652C128.385 95.8451 128.466 94.6824 128.621 93.5832L127.631 93.4432ZM127.652 101.586L126.66 101.705C126.803 102.897 127.001 104.119 127.25 105.366L128.231 105.169L129.211 104.973C128.971 103.773 128.782 102.603 128.645 101.466L127.652 101.586ZM129.302 109.576L128.34 109.849C128.506 110.434 128.683 111.023 128.869 111.615L129.823 111.316L130.777 111.016C130.596 110.441 130.425 109.87 130.264 109.303L129.302 109.576ZM129.823 111.316L128.869 111.615C129.067 112.248 129.302 112.876 129.572 113.497L130.49 113.099L131.407 112.701C131.164 112.141 130.954 111.579 130.777 111.016L129.823 111.316ZM132.871 117.214L132.063 117.803C132.819 118.84 133.673 119.847 134.618 120.817L135.335 120.119L136.051 119.421C135.168 118.515 134.375 117.58 133.678 116.624L132.871 117.214ZM138.913 123.27L138.308 124.066C139.322 124.837 140.401 125.572 141.539 126.265L142.06 125.411L142.58 124.557C141.498 123.898 140.476 123.202 139.519 122.474L138.913 123.27ZM146.267 127.648L145.848 128.556C147.005 129.09 148.208 129.584 149.452 130.035L149.792 129.095L150.133 128.155C148.941 127.723 147.791 127.25 146.685 126.74L146.267 127.648ZM154.349 130.491L154.103 131.461C155.339 131.774 156.607 132.045 157.904 132.272L158.076 131.287L158.248 130.302C157 130.084 155.782 129.823 154.595 129.522L154.349 130.491ZM162.801 131.891L162.719 132.887C163.991 132.992 165.285 133.054 166.599 133.07L166.611 132.07L166.623 131.07C165.356 131.055 164.108 130.995 162.883 130.894L162.801 131.891ZM171.371 131.926L171.443 132.923C172.714 132.831 174.001 132.696 175.3 132.515L175.163 131.525L175.025 130.534C173.769 130.709 172.526 130.839 171.299 130.928L171.371 131.926ZM179.854 130.682L180.07 131.658C181.311 131.384 182.562 131.069 183.821 130.709L183.547 129.748L183.272 128.786C182.052 129.134 180.84 129.44 179.639 129.705L179.854 130.682ZM188.08 128.27L188.424 129.209C189.618 128.772 190.817 128.294 192.021 127.774L191.624 126.856L191.228 125.938C190.059 126.443 188.894 126.907 187.736 127.331L188.08 128.27ZM195.928 124.824L196.384 125.713C197.512 125.135 198.642 124.518 199.774 123.862L199.272 122.997L198.771 122.132C197.669 122.77 196.568 123.371 195.471 123.934L195.928 124.824ZM203.318 120.486L203.87 121.32C204.407 120.964 204.943 120.6 205.48 120.226L204.908 119.406L204.336 118.585C203.813 118.95 203.289 119.306 202.766 119.653L203.318 120.486ZM204.908 119.406L205.616 120.112C205.849 119.878 206.236 119.542 206.801 119.115L206.197 118.317L205.594 117.52C204.988 117.979 204.522 118.377 204.2 118.7L204.908 119.406ZM209.722 115.979L210.236 116.837C211.086 116.327 212.051 115.779 213.136 115.198L212.664 114.317L212.193 113.435C211.081 114.03 210.088 114.594 209.208 115.121L209.722 115.979ZM216.439 112.411L216.87 113.313C217.822 112.858 218.838 112.391 219.919 111.913L219.515 110.999L219.111 110.084C218.013 110.569 216.979 111.045 216.008 111.509L216.439 112.411ZM223.409 109.355L223.784 110.282C224.294 110.076 224.815 109.869 225.349 109.661L224.985 108.729L224.622 107.798C224.081 108.009 223.552 108.219 223.035 108.428L223.409 109.355Z" fill="#16A34A"/>
<g filter="url(#filter0_dd_2180_2948)">
<path d="M256.407 97.4708C256.494 96.3696 257.457 95.5475 258.558 95.6344L286.645 97.8526L292.774 105.276L298.829 112.433L295.571 153.688C295.484 154.789 294.521 155.611 293.419 155.524L252.08 152.259L256.407 97.4708Z" fill="white"/>
<path d="M283.546 141.172L266.167 139.743C265.911 139.722 265.674 139.6 265.508 139.404C265.341 139.208 265.26 138.955 265.281 138.698L267.027 117.458C267.048 117.202 267.17 116.964 267.366 116.798C267.562 116.632 267.816 116.55 268.072 116.572L279.658 117.524L285.861 124.838L284.591 140.286C284.57 140.542 284.448 140.779 284.252 140.945C284.056 141.112 283.802 141.193 283.546 141.172Z" stroke="#1A76BB" stroke-width="2.58333" stroke-linecap="round" stroke-linejoin="round"/>
<path d="M279.658 117.524L279.103 124.283L285.861 124.838" stroke="#1A76BB" stroke-width="2.58333" stroke-linecap="round" stroke-linejoin="round"/>
<path d="M272.675 131.53L278.468 132.006" stroke="#1A76BB" stroke-width="2.58333" stroke-linecap="round" stroke-linejoin="round"/>
<path d="M275.809 128.872L275.333 134.665" stroke="#1A76BB" stroke-width="2.58333" stroke-linecap="round" stroke-linejoin="round"/>
<path d="M298.889 112.55L286.74 97.8869L284.985 111.416C284.908 112.015 285.373 112.545 285.976 112.545L298.889 112.55Z" fill="#E5E7EB"/>
<path d="M298.889 112.562L286.74 97.8988L286.657 108.623C286.654 109.082 286.963 109.485 287.407 109.599L298.889 112.562Z" fill="#F3F4F6"/>
<path opacity="0.5" d="M296.457 142.461L281.794 154.61L293.419 155.528C294.52 155.615 295.483 154.793 295.57 153.692L296.457 142.461Z" fill="#F3F4F6"/>
</g>
<g filter="url(#filter1_dd_2180_2948)">
<path d="M209.42 101.734C209.315 100.634 210.122 99.6579 211.222 99.5535L240.332 96.7883L247.91 103.264L255.364 109.48L259.422 152.206C259.527 153.305 258.72 154.281 257.621 154.386L216.798 158.263C215.699 158.368 214.723 157.561 214.618 156.461L209.42 101.734Z" fill="white"/>
<path d="M242.825 130.578L248.613 130.042" stroke="#16A34A" stroke-width="2.58333" stroke-linecap="round" stroke-linejoin="round"/>
<path d="M245.451 127.416L245.987 133.204" stroke="#16A34A" stroke-width="2.58333" stroke-linecap="round" stroke-linejoin="round"/>
<path d="M232 134.499C235.995 134.129 238.934 130.59 238.565 126.594C238.195 122.599 234.656 119.66 230.66 120.03C226.664 120.4 223.725 123.939 224.095 127.934C224.465 131.93 228.004 134.869 232 134.499Z" stroke="#16A34A" stroke-width="2.58333" stroke-linecap="round" stroke-linejoin="round"/>
<path d="M222.318 140.26C224.523 137.082 227.847 134.883 232 134.499C236.152 134.114 239.824 135.666 242.575 138.384" stroke="#16A34A" stroke-width="2.58333" stroke-linecap="round" stroke-linejoin="round"/>
<path d="M255.446 109.585L240.435 96.8028L241.066 110.955C241.092 111.557 241.644 111.999 242.238 111.895L255.446 109.585Z" fill="#E5E7EB"/>
<path d="M255.446 109.587L240.436 96.8051L242.272 107.784C242.348 108.237 242.722 108.58 243.18 108.616L255.446 109.587Z" fill="#F3F4F6"/>
<path opacity="0.5" d="M258.313 140.521L245.53 155.532L257.62 154.383C258.72 154.279 259.527 153.303 259.422 152.203L258.313 140.521Z" fill="#F3F4F6"/>
</g>
<defs>
<filter id="filter0_dd_2180_2948" x="247.08" y="94.6281" width="56.8088" height="69.9061" filterUnits="userSpaceOnUse" color-interpolation-filters="sRGB">
<feFlood flood-opacity="0" result="BackgroundImageFix"/>
<feColorMatrix in="SourceAlpha" type="matrix" values="0 0 0 0 0 0 0 0 0 0 0 0 0 0 0 0 0 0 127 0" result="hardAlpha"/>
<feMorphology radius="2" operator="erode" in="SourceAlpha" result="effect1_dropShadow_2180_2948"/>
<feOffset dy="2"/>
<feGaussianBlur stdDeviation="2"/>
<feColorMatrix type="matrix" values="0 0 0 0 0 0 0 0 0 0 0 0 0 0 0 0 0 0 0.1 0"/>
<feBlend mode="normal" in2="BackgroundImageFix" result="effect1_dropShadow_2180_2948"/>
<feColorMatrix in="SourceAlpha" type="matrix" values="0 0 0 0 0 0 0 0 0 0 0 0 0 0 0 0 0 0 127 0" result="hardAlpha"/>
<feMorphology radius="1" operator="erode" in="SourceAlpha" result="effect2_dropShadow_2180_2948"/>
<feOffset dy="4"/>
<feGaussianBlur stdDeviation="3"/>
<feColorMatrix type="matrix" values="0 0 0 0 0 0 0 0 0 0 0 0 0 0 0 0 0 0 0.1 0"/>
<feBlend mode="normal" in2="effect1_dropShadow_2180_2948" result="effect2_dropShadow_2180_2948"/>
<feBlend mode="normal" in="SourceGraphic" in2="effect2_dropShadow_2180_2948" result="shape"/>
</filter>
<filter id="filter1_dd_2180_2948" x="204.41" y="95.7883" width="60.0212" height="71.4842" filterUnits="userSpaceOnUse" color-interpolation-filters="sRGB">
<feFlood flood-opacity="0" result="BackgroundImageFix"/>
<feColorMatrix in="SourceAlpha" type="matrix" values="0 0 0 0 0 0 0 0 0 0 0 0 0 0 0 0 0 0 127 0" result="hardAlpha"/>
<feMorphology radius="2" operator="erode" in="SourceAlpha" result="effect1_dropShadow_2180_2948"/>
<feOffset dy="2"/>
<feGaussianBlur stdDeviation="2"/>
<feColorMatrix type="matrix" values="0 0 0 0 0 0 0 0 0 0 0 0 0 0 0 0 0 0 0.1 0"/>
<feBlend mode="normal" in2="BackgroundImageFix" result="effect1_dropShadow_2180_2948"/>
<feColorMatrix in="SourceAlpha" type="matrix" values="0 0 0 0 0 0 0 0 0 0 0 0 0 0 0 0 0 0 127 0" result="hardAlpha"/>
<feMorphology radius="1" operator="erode" in="SourceAlpha" result="effect2_dropShadow_2180_2948"/>
<feOffset dy="4"/>
<feGaussianBlur stdDeviation="3"/>
<feColorMatrix type="matrix" values="0 0 0 0 0 0 0 0 0 0 0 0 0 0 0 0 0 0 0.1 0"/>
<feBlend mode="normal" in2="effect1_dropShadow_2180_2948" result="effect2_dropShadow_2180_2948"/>
<feBlend mode="normal" in="SourceGraphic" in2="effect2_dropShadow_2180_2948" result="shape"/>
</filter>
</defs>
</svg>
